<svg width="50" height="50" viewBox="0 0 50 50" fill="none" xmlns="http://www.w3.org/2000/svg">
    <path d="M30.8937 13.1292C29.3562 13.0583 28.8937 13.0458 25 13.0458C21.1062 13.0458 20.6458 13.0604 19.1083 13.1292C15.1521 13.3104 13.3104 15.1833 13.1292 19.1083C13.0604 20.6458 13.0437 21.1062 13.0437 25C13.0437 28.8937 13.0604 29.3542 13.1292 30.8937C13.3104 34.8083 15.1437 36.6917 19.1083 36.8729C20.6437 36.9417 21.1062 36.9583 25 36.9583C28.8958 36.9583 29.3562 36.9437 30.8937 36.8729C34.85 36.6937 36.6896 34.8146 36.8729 30.8937C36.9417 29.3562 36.9562 28.8937 36.9562 25C36.9562 21.1062 36.9417 20.6458 36.8729 19.1083C36.6896 15.1854 34.8458 13.3104 30.8937 13.1292V13.1292ZM25 32.4896C20.8646 32.4896 17.5104 29.1375 17.5104 25C17.5104 20.8646 20.8646 17.5125 25 17.5125C29.1354 17.5125 32.4896 20.8646 32.4896 25C32.4896 29.1354 29.1354 32.4896 25 32.4896ZM32.7854 18.9667C31.8187 18.9667 31.0354 18.1833 31.0354 17.2167C31.0354 16.25 31.8187 15.4667 32.7854 15.4667C33.7521 15.4667 34.5354 16.25 34.5354 17.2167C34.5354 18.1812 33.7521 18.9667 32.7854 18.9667V18.9667ZM29.8604 25C29.8604 27.6854 27.6833 29.8604 25 29.8604C22.3167 29.8604 20.1396 27.6854 20.1396 25C20.1396 22.3146 22.3167 20.1396 25 20.1396C27.6833 20.1396 29.8604 22.3146 29.8604 25ZM25 0C11.1937 0 0 11.1937 0 25C0 38.8062 11.1937 50 25 50C38.8062 50 50 38.8062 50 25C50 11.1937 38.8062 0 25 0ZM39.4958 31.0125C39.2562 36.3146 36.3042 39.2521 31.0146 39.4958C29.4583 39.5667 28.9604 39.5833 25 39.5833C21.0396 39.5833 20.5437 39.5667 18.9875 39.4958C13.6875 39.2521 10.7479 36.3104 10.5042 31.0125C10.4333 29.4583 10.4167 28.9604 10.4167 25C10.4167 21.0396 10.4333 20.5437 10.5042 18.9875C10.7479 13.6875 13.6896 10.7479 18.9875 10.5063C20.5437 10.4333 21.0396 10.4167 25 10.4167C28.9604 10.4167 29.4583 10.4333 31.0146 10.5063C36.3167 10.75 39.2583 13.6979 39.4958 18.9875C39.5667 20.5437 39.5833 21.0396 39.5833 25C39.5833 28.9604 39.5667 29.4583 39.4958 31.0125Z" fill="#444444"/>
</svg>
